<?xml version="1.0" encoding="UTF-8"?>
<!-- Generated by Pixelmator Pro 3.5.5 -->
<svg width="1024" height="1024" viewBox="0 0 1024 1024" xmlns="http://www.w3.org/2000/svg">
    <g id="Tulipa">
        <path id="Backdrop" fill="#582a60" fill-rule="evenodd" stroke="none" d="M 512 60 C 451.608948 59.977478 399.977325 92.01709 304 148 L 112 260 C 102.170036 265.735474 96.000526 276.619141 96 288 L 96 512 C 96 623.999023 93.755997 683.698853 124 736 C 154.244003 788.301147 207.993408 818.002075 304 872 L 496 980 C 505.740936 985.478149 518.259033 985.478149 528 980 L 720 872 C 816.006592 818.002075 869.755981 788.301147 900 736 C 930.244019 683.698853 928 623.999023 928 512 L 928 288 C 927.999451 276.619141 921.829956 265.735474 912 260 L 720 148 C 719.997314 147.997314 720.002686 148.002686 720 148 C 623.962219 92.014038 572.437927 59.999084 512 60 Z"/>
        <path id="Inner-petal" fill="#fff312" fill-rule="evenodd" stroke="none" d="M 512 288 L 312 404 L 512 520 L 712 404 L 512 288 Z"/>
        <path id="Front-petals" fill="#ffa500" fill-rule="evenodd" stroke="none" d="M 512 952 L 704 844 C 896.012878 736.004395 896 736 896 512 L 896 288 L 512 512 Z M 512 952 L 320 844 C 127.987129 736.004395 128 736 128 512 L 128 288 L 512 512 Z"/>
        <path id="Left-petal" fill="#fc861c" fill-rule="evenodd" stroke="none" d="M 512 952 L 320 844 C 127.987129 736.004395 128 736 128 512 L 128 288 L 512 512 Z"/>
    </g>
</svg>
