<?xml version="1.0" encoding="UTF-8"?>
<svg width="1024" height="1024" viewBox="0 0 1024 1024" xmlns="http://www.w3.org/2000/svg">
    <style>
        :root {
            color-scheme: light dark;
        }
        @media (prefers-color-scheme: light) {
            #Tulipa {
                fill: #1f2329;
            }
        }
        @media (prefers-color-scheme: dark) {
            #Tulipa {
                fill: #e1e8ee;
            }
        }
    </style>
    <path id="Tulipa" fill-rule="evenodd" d="M 511.993781 984.108612 C 506.429052 984.108612 500.86422 982.75392 495.993781 980.014862 L 303.993781 872.014862 C 207.987765 818.017261 154.237603 788.315696 123.993781 736.014862 C 93.749959 683.714028 95.993781 624.013214 95.993781 512.014862 L 95.993781 288.014862 C 95.994308 276.634071 102.163876 265.750301 111.993781 260.014862 L 303.993781 148.014862 C 399.970531 92.032288 451.603091 59.99234 511.993781 60.014862 C 572.431346 60.013947 623.956577 92.029236 719.993781 148.014862 L 911.993781 260.014862 C 921.823678 265.750301 927.993232 276.634071 927.993781 288.014862 L 927.993781 512.014862 C 927.993781 624.013214 930.237618 683.714028 899.993781 736.014862 C 869.749944 788.315696 815.999797 818.017261 719.993781 872.014862 L 527.993781 980.014862 C 523.123327 982.75392 517.55851 984.108612 511.993781 984.108612 Z M 495.993781 943.014862 L 495.993781 521.233612 L 127.993781 308.764862 L 127.993781 512.014862 C 127.993781 533.002541 127.992296 552.030681 128.150031 569.358612 C 128.150031 569.358612 128.150031 569.389862 128.150031 569.389862 C 128.202603 575.157784 128.275373 580.737164 128.368781 586.139862 C 128.368781 586.139862 128.368781 586.171112 128.368781 586.171112 C 128.649788 602.407449 129.132806 617.025417 129.993781 630.327362 C 130.567761 639.195327 131.326078 647.467196 132.275031 655.233612 C 133.459824 664.930147 134.966398 673.84509 136.900031 682.108612 C 136.900031 682.108612 136.900031 682.139862 136.900031 682.139862 C 137.287415 683.794222 137.696973 685.410353 138.118781 687.014862 C 139.384203 691.828387 140.798418 696.4169 142.400031 700.827362 C 144.001647 705.237827 145.797665 709.470323 147.775031 713.546112 C 150.415212 718.988113 153.382632 724.152159 156.775031 729.139862 C 157.621665 730.385174 158.502857 731.60404 159.400031 732.827362 C 161.189703 735.26763 163.088019 737.678251 165.087531 740.046112 C 165.087531 740.046112 165.087531 740.077362 165.087531 740.077362 C 166.085162 741.258362 167.129266 742.410615 168.181281 743.577362 C 168.181281 743.577362 168.181281 743.608612 168.181281 743.608612 C 169.233798 744.775542 170.322906 745.922182 171.431281 747.077362 C 171.431281 747.077362 171.431281 747.108612 171.431281 747.108612 C 172.540206 748.264031 173.702518 749.39994 174.868781 750.546112 C 176.045695 751.702751 177.225749 752.865083 178.462531 754.014862 C 182.15609 757.448593 186.114866 760.846668 190.368781 764.264862 C 190.368781 764.264862 190.400031 764.264862 190.400031 764.264862 C 196.066815 768.81748 202.25108 773.41069 208.993781 778.077362 C 222.494024 787.420978 238.242987 797.14802 256.618781 807.921112 C 261.212733 810.614386 265.972054 813.369089 270.900031 816.202362 C 285.68395 824.702179 301.992664 833.890325 319.993781 844.014862 L 495.993781 943.014862 Z M 527.993781 943.014862 L 703.993781 844.014862 C 896.005699 736.019797 895.993781 736.013742 895.993781 512.014862 L 895.993781 308.796112 L 527.993781 521.233612 L 527.993781 943.014862 Z M 511.993781 493.514862 L 689.556281 391.014862 L 511.993781 288.014862 L 334.431281 391.014862 L 511.993781 493.514862 Z"/>
</svg>
